# xmcd
#
# Track frame offsets:
#	150
#	11700
#	28125
#	43725
#	62400
#	84300
#	103950
#	113925
#	133275
#	153075
#	171975
#	189075
#
# Disc length: 2814 seconds
#
# Revision: 0
# Processed by: cddbd v1.5.2PL0 Copyright (c) Steve Scherf et al.
# Submitted via: EZCDAudioConverter 7.1.7.1
#
DISCID=9b0afc0c
DTITLE=罗大佑 - 罗大佑自选辑 第Ⅱ辑
DYEAR=1995
DGENRE=
TTITLE0=歌(1995UNPLUGGED)
TTITLE1=暗恋
TTITLE2=你的样子
TTITLE3=黄色脸孔
TTITLE4=亲亲表哥
TTITLE5=东方之珠
TTITLE6=原乡
TTITLE7=母亲
TTITLE8=飞车
TTITLE9=皇后大道东
TTITLE10=五十块钱
TTITLE11=恋曲2000
EXTD=
EXTT0=
EXTT1=
EXTT2=
EXTT3=
EXTT4=
EXTT5=
EXTT6=
EXTT7=
EXTT8=
EXTT9=
EXTT10=
EXTT11=
PLAYORDER=
